<?xml version="1.0" encoding="UTF-8"?>
<svg width="272px" height="180px" viewBox="0 0 272 180" version="1.1" xmlns="http://www.w3.org/2000/svg" xmlns:xlink="http://www.w3.org/1999/xlink">
    <title>Untitled</title>
    <g id="Page-1" stroke="none" stroke-width="1" fill="none" fill-rule="evenodd">
        <g id="Group" transform="translate(1.000000, 0.000000)">
            <text id="A" font-family="SavedByZero-Regular, Saved By Zero" font-size="150" font-weight="normal" letter-spacing="3.84615385" fill="#32C5FF">
                <tspan x="8" y="144">A</tspan>
            </text>
            <path d="M239.696761,144 C246.582721,144 251.578918,142.145923 254.659202,138.437768 C257.704508,134.729614 258.897999,129.808298 258.264039,123.67382 L250.408616,49.6480687 L236.145563,49.6480687 L242.26576,122.987124 C242.392522,124.543634 242.069466,125.802575 241.294961,126.763948 C240.518149,127.725322 239.454829,128.206009 238.106729,128.206009 C235.680148,128.206009 233.928642,126.924177 232.856743,124.360515 L208.589094,65.167382 C206.756352,59.8569385 204.343319,55.6680973 201.351221,52.6008584 C198.387693,49.5336195 194.207204,48 188.78827,48 C182.811506,48 178.33243,49.8540773 175.324341,53.5622318 C172.280759,57.2703863 170.683104,62.1459227 170.558383,68.1888412 L169.455927,122.987124 C169.425363,124.543634 168.952791,125.802575 168.036409,126.763948 C167.117667,127.725322 165.983362,128.206009 164.635262,128.206009 C163.377035,128.206009 162.353515,127.862661 161.565857,127.175966 C160.779738,126.48927 160.182456,125.550787 159.773987,124.360515 L138.102056,49.6480687 L123,49.6480687 L143.680387,126.832618 C145.196108,132.143062 147.499096,136.331903 150.589174,139.399142 C153.706258,142.466381 158.396535,144 164.639805,144 C171.525764,144 176.707167,142.145923 180.158595,138.437768 C183.576019,134.729614 185.264878,129.808298 185.250807,123.67382 L185.128353,69.0128755 C185.124742,67.3648069 185.511539,66.0600858 186.286974,65.0987124 C187.060053,64.1373391 188.058623,63.6566524 189.284451,63.6566524 C190.428558,63.6566524 191.393217,64.0228898 192.179775,64.7553648 C192.968124,65.4878398 193.577185,66.4492132 194.006756,67.639485 L217.013149,126.832618 C219.064454,132.143062 221.788497,136.331903 225.186097,139.399142 C228.610037,142.466381 233.453492,144 239.696761,144 Z" id="W" fill="#D8D8D8" fill-rule="nonzero"></path>
            <rect id="Rectangle" stroke="#D8D8D8" stroke-width="0.5" x="-0.25" y="26.75" width="270.5" height="127.5"></rect>
        </g>
    </g>
</svg>